# xmcd
#
# Track frame offsets:
#	150
#	18127
#	34855
#	50825
#	69895
#	85710
#	101702
#	118390
#	136760
#	155327
#
# Disc length: 2280 seconds
#
# Revision: 0
# Processed by: cddbd v1.4PL0 Copyright (c) Steve Scherf et al.
# Submitted via: dBpowerAMP V4.0
#
DISCID=7c08e60a
DTITLE=Enrique Montoya Candela - A mi gusto
DYEAR=1996
DGENRE=Canción española
TTITLE0=Gitanilla
TTITLE1=En cuarto emnguante
TTITLE2=Corazón Engreído
TTITLE3=Quiero estar a solas
TTITLE4=No digas que me quieres
TTITLE5=No temas
TTITLE6=Cuerpo de Mujer
TTITLE7=Una vida Exprés
TTITLE8=Acto de fe
TTITLE9=Lluvia cruel
EXTD=
EXTT0=
EXTT1=
EXTT2=
EXTT3=
EXTT4=
EXTT5=
EXTT6=
EXTT7=
EXTT8=
EXTT9=
PLAYORDER=
